
Batman - O Cavaleiro das Trevas Ressurge | The Dark Knight Rises

Batman.O.Cavaleiro.das.Trevas.Ressurge.TS.XviD.Dublado-KGB

Batman.O.Cavaleiro.das.Trevas.Ressurge.TS.XviD.Dublado-KGBBatman.O.Cavaleiro.das.Trevas.Ressurge.TS.XviD.Dublado-KGB.avi
Format                                   : AVI
Format/Info                              : Audio Video Interleave
Format profile                           : OpenDML
Format settings                          : rec
File size                                : 910 MiB
Duration                                 : 2h 36mn
Overall bit rate                         : 812 Kbps
Writing application                      : AVI-Mux GUI 1.17.8, Aug 30 2008  12:36:58

Video
ID                                       : 0
Format                                   : xvid
Codec ID                                 : xvid
Duration                                 : 2h 36mn
Bit rate                                 : 675 Kbps
Width                                    : 720 pixels
Height                                   : 300 pixels
Display aspect ratio                     : 2.40:1
Frame rate                               : 29.970 fps
Bits/(Pixel*Frame)                       : 0.104
Stream size                              : 757 MiB (83%)

Audio
ID                                       : 1
Format                                   : MPEG Audio
Format version                           : Version 1
Format profile                           : Layer 3
Codec ID                                 : 55
Codec ID/Hint                            : MP3
Duration                                 : 2h 36mn
Bit rate mode                            : Constant
Bit rate                                 : 128 Kbps
Channel(s)                               : 2 channels
Sampling rate                            : 44.1 KHz
Compression mode                         : Lossy
Stream size                              : 143 MiB (16%)
Alignment                                : Aligned on interleaves
Interleave, duration                     : 26 ms (0.78 video frame)
Interleave, preload duration             : 182 ms
Title                                    : Portugues BR - KGB
